<svg xmlns="http://www.w3.org/2000/svg" xmlns:xlink="http://www.w3.org/1999/xlink" viewBox="0 0 1367.93 771.97"><defs><style>.cls-1{fill:none;}.cls-2,.cls-6{fill:#fff;}.cls-2,.cls-3{stroke:#000;stroke-miterlimit:10;}.cls-2{stroke-width:4px;}.cls-3{fill:#6a5eab;stroke-width:0.93px;}.cls-4{fill:url(#New_Pattern_3);}.cls-5{opacity:0.26;}</style><pattern id="New_Pattern_3" data-name="New Pattern 3" x="0.97" width="440" height="440" patternUnits="userSpaceOnUse" viewBox="0 0 440 440"><rect class="cls-1" width="440" height="440"/><line class="cls-2" x1="456.93" y1="262.44" x2="423.07" y2="397.56"/><line class="cls-2" x1="236.93" y1="372.44" x2="203.07" y2="507.56"/><line class="cls-2" x1="257.93" y1="372.44" x2="224.07" y2="507.56"/><line class="cls-2" x1="16.93" y1="262.44" x2="-16.93" y2="397.56"/><line class="cls-2" x1="37.93" y1="262.44" x2="4.07" y2="397.56"/><line class="cls-2" x1="456.93" y1="42.44" x2="423.07" y2="177.56"/><line class="cls-2" x1="236.93" y1="152.44" x2="203.07" y2="287.56"/><line class="cls-2" x1="257.93" y1="152.44" x2="224.07" y2="287.56"/><line class="cls-2" x1="16.93" y1="42.44" x2="-16.93" y2="177.56"/><line class="cls-2" x1="37.93" y1="42.44" x2="4.07" y2="177.56"/><line class="cls-2" x1="236.93" y1="-67.56" x2="203.07" y2="67.56"/><line class="cls-2" x1="257.93" y1="-67.56" x2="224.07" y2="67.56"/></pattern></defs><title>about_pattern</title><g id="Layer_2" data-name="Layer 2"><rect class="cls-3" x="0.47" y="0.5" width="1367" height="771"/></g><g id="Layer_1" data-name="Layer 1"><rect class="cls-4" x="1.43" y="0.47" width="1365.07" height="767.07"/><path d="M1365.07.93V767.07H.93V.93H1365.07M1366,0H0V768H1366V0Z" transform="translate(0.97)"/></g><g id="Layer_3" data-name="Layer 3"><g class="cls-5"><rect class="cls-6" x="1.47" y="0.5" width="1365" height="770"/><path d="M1365,1V770H1V1H1365m1-1H0V771H1366V0Z" transform="translate(0.97)"/></g></g></svg>