<?xml version="1.0" encoding="utf-8"?>
<!-- Generator: Adobe Illustrator 21.0.2, SVG Export Plug-In . SVG Version: 6.00 Build 0)  -->
<svg version="1.1" id="master-artboard" xmlns="http://www.w3.org/2000/svg" xmlns:xlink="http://www.w3.org/1999/xlink" x="0px"
	 y="0px" viewBox="0 0 115.4 115.4" style="enable-background:new 0 0 115.4 115.4;" xml:space="preserve">
<style type="text/css">
	.st0{fill:#FFF197;stroke:#362A45;stroke-miterlimit:10;}
	.st1{fill:#E5CF73;stroke:#362A45;stroke-miterlimit:10;}
	.st2{fill:none;stroke:#362A45;stroke-width:1.5843;stroke-linecap:round;stroke-linejoin:round;}
	.st3{fill:#14936C;stroke:#362A45;stroke-miterlimit:10;}
	.st4{fill:#127C59;}
	.st5{fill:#15AEBA;stroke:#362A45;stroke-miterlimit:10;}
	.st6{fill:#128E91;}
	.st7{fill:#FFDE17;stroke:#362A45;stroke-miterlimit:10;}
	.st8{fill:#FFEA80;}
	.st9{fill:#FFFBA9;stroke:#362A45;stroke-width:0.2464;stroke-miterlimit:10;}
	.st10{fill:#BF166F;stroke:#362A45;stroke-miterlimit:10;}
</style>
<title>abouticon</title>
<path class="st0" d="M7.6,109.7c3.4,0.7,13.5-5.8,13.5-5.8l-0.1-0.1l-9.4-9.4l-0.1-0.1c0,0-6.3,10-5.6,13.7l0.8,0.8L7.6,109.7z"/>
<polyline class="st1" points="103.2,22.9 106.3,26 88.2,44.1 86.7,42.6 100.5,28.8 99.1,27.3 "/>
<path class="st2" d="M3.8,111.6"/>
<path class="st3" d="M99.1,5.7L55.5,49.3l0.6,0.6l9.4,9.4l0.6,0.6l43.6-43.6l-5.3-5.3L99.1,5.7z"/>
<polygon class="st4" points="61.4,55.3 65.7,59.5 109,16.3 104.6,11.9 "/>
<path class="st5" d="M52.8,53.2l9.4,9.4L21,103.8l-9.4-9.4L52.8,53.2z"/>
<path class="st6" d="M58.5,58.5l3.5,3.6l-41,41l-3.5-3.5L58.5,58.5z"/>
<path class="st7" d="M56.1,49.9l9.4,9.4l-3.3,3.3l-9.4-9.4L56.1,49.9z"/>
<path class="st8" d="M7.1,108.5l0.7,0.7c3.4,0.3,12.5-5.4,12.5-5.4c0,0-3.6-3.5-3.6-3.5S12.5,106.1,7.1,108.5z"/>
<polygon class="st9" points="7.6,109.8 4.2,111.4 5.7,108 "/>
<rect x="100.7" y="5" transform="matrix(0.7071 0.7071 -0.7071 0.7071 37.2738 -73.097)" class="st10" width="12.4" height="6.9"/>
</svg>
