<?xml version="1.0" encoding="utf-8"?>
<!-- Generator: Adobe Illustrator 21.0.2, SVG Export Plug-In . SVG Version: 6.00 Build 0)  -->
<svg version="1.1" id="Layer_1" xmlns="http://www.w3.org/2000/svg" xmlns:xlink="http://www.w3.org/1999/xlink" x="0px" y="0px"
	 viewBox="0 0 168 180.1" style="enable-background:new 0 0 168 180.1;" xml:space="preserve">
<style type="text/css">
	.st0{opacity:0.95;fill:url(#SVGID_1_);enable-background:new    ;}
	.st1{fill:url(#SVGID_2_);}
	.st2{opacity:0.1;}
	.st3{fill:url(#SVGID_3_);}
	.st4{fill:url(#SVGID_4_);}
</style>
<title>Asset 2</title>
<g>
	<g id="Layer_2">
		<g id="Layer_1-2">
			
				<linearGradient id="SVGID_1_" gradientUnits="userSpaceOnUse" x1="12.1875" y1="173.0575" x2="156.1425" y2="29.1025" gradientTransform="matrix(1 0 0 -1 0 182)">
				<stop  offset="0" style="stop-color:#2F2965"/>
				<stop  offset="1" style="stop-color:#2C2B53"/>
			</linearGradient>
			<rect x="11.1" y="10" class="st0" width="146.1" height="141.8"/>
			
				<image style="overflow:visible;opacity:0.4;enable-background:new    ;" width="169" height="165" xlink:href="2E41D88CFA3339B2.png"  transform="matrix(0.9941 0 0 0.9939 0 0)">
			</image>
			
				<linearGradient id="SVGID_2_" gradientUnits="userSpaceOnUse" x1="4.81" y1="178.93" x2="163.18" y2="24.21" gradientTransform="matrix(1 0 0 -1 0 182)">
				<stop  offset="0" style="stop-color:#D199FE"/>
				<stop  offset="1" style="stop-color:#C179FF"/>
			</linearGradient>
			<path class="st1" d="M4.8,3.1v154.7h158.4V3.1H4.8z M150.6,145.5H17.7V15.7h132.9V145.5z"/>
			<g class="st2">
				<path d="M47.9,94.8l-5.8,19H29.5L51,46.8h15.6l21.7,66.9H75.2l-6.1-19L47.9,94.8z M67,85.5l-5.2-16.5c-1.3-4.1-2.4-8.6-3.4-12.5
					h-0.2c-1,3.9-2,8.5-3.2,12.5l-5.1,16.5H67z"/>
			</g>
			
				<linearGradient id="SVGID_3_" gradientUnits="userSpaceOnUse" x1="29.99" y1="103.02" x2="136.35" y2="103.02" gradientTransform="matrix(1 0 0 -1 0 182)">
				<stop  offset="0" style="stop-color:#D199FE"/>
				<stop  offset="1" style="stop-color:#C179FF"/>
			</linearGradient>
			<path class="st3" d="M47.9,93.4l-5.8,19H29.5L51,45.5h15.6l21.7,66.9H75.2l-6.1-19L47.9,93.4z M67,84.2l-5.2-16.5
				c-1.3-4.1-2.4-8.6-3.4-12.5h-0.2c-1,3.9-2,8.5-3.2,12.5l-5.1,16.5H67z"/>
			<g class="st2">
				<path d="M104.4,93c0.3,8.7,7.1,12.5,14.9,12.5c4.6,0.1,9.1-0.6,13.4-2.2l1.8,8.4c-5.4,2.1-11.1,3.1-16.9,3.1
					c-15.7,0-24.9-9.7-24.9-24.5c0-13.4,8.1-26,23.6-26c15.8,0,20.8,12.9,20.8,23.5c0,1.7-0.1,3.5-0.4,5.2L104.4,93z M125.7,84.5
					c0.1-4.5-1.9-11.8-10-11.8c-7.5,0-10.7,6.8-11.2,11.8H125.7z"/>
			</g>
			
				<linearGradient id="SVGID_4_" gradientUnits="userSpaceOnUse" x1="29.99" y1="93.754" x2="136.35" y2="93.754" gradientTransform="matrix(1 0 0 -1 0 182)">
				<stop  offset="0" style="stop-color:#D199FE"/>
				<stop  offset="1" style="stop-color:#C179FF"/>
			</linearGradient>
			<path class="st4" d="M104.4,91.7c0.3,8.7,7.1,12.5,14.9,12.5c4.6,0.1,9.1-0.6,13.4-2.2l1.8,8.4c-5.4,2.1-11.1,3.1-16.9,3.1
				c-15.7,0-24.9-9.7-24.9-24.5c0-13.4,8.1-26,23.6-26c15.8,0,20.8,12.9,20.8,23.5c0,1.7-0.1,3.5-0.4,5.2L104.4,91.7z M125.7,83.1
				c0.1-4.5-1.9-11.8-10-11.8c-7.5,0-10.7,6.8-11.2,11.8H125.7z"/>
		</g>
	</g>
</g>
</svg>
