<?xml version="1.0" encoding="utf-8"?>
<!-- Generator: Adobe Illustrator 21.0.2, SVG Export Plug-In . SVG Version: 6.00 Build 0)  -->
<svg version="1.1" id="master-artboard" xmlns="http://www.w3.org/2000/svg" xmlns:xlink="http://www.w3.org/1999/xlink" x="0px"
	 y="0px" viewBox="0 0 159.9 97.8" style="enable-background:new 0 0 159.9 97.8;" xml:space="preserve">
<style type="text/css">
	.st0{fill:#4A5877;}
	.st1{fill:#C4C4C4;}
	.st2{fill:#262828;}
	.st3{fill:#C9C9C9;}
	.st4{fill:#212121;}
	.st5{fill:#E0E0E0;}
	.st6{fill:#92ACEF;}
	.st7{fill:#DB429D;}
	.st8{fill:#FFFFFF;}
	.st9{fill:#424746;}
	.st10{fill:#919191;}
	.st11{fill:#323534;}
	.st12{fill:#EAEAEA;}
	.st13{fill:none;stroke:#424746;stroke-width:4.4084;stroke-linecap:round;stroke-miterlimit:10;}
</style>
<path class="st0" d="M37.5,82.9c9.9,0,17.9-8,17.9-17.9s-8-17.9-17.9-17.9s-17.9,8-17.9,17.9C19.6,74.9,27.6,82.8,37.5,82.9z"/>
<title>bike_icon</title>
<path class="st1" d="M107.1,23.4c0.5,1,0.2,2.2-0.8,2.7s-2.2,0.2-2.7-0.8c0,0,0,0,0-0.1L97.3,13c-0.5-1-0.2-2.2,0.8-2.7
	c1-0.5,2.2-0.2,2.7,0.8c0,0,0,0,0,0.1L107.1,23.4z"/>
<path class="st2" d="M60.8,41.6L60.8,41.6C48,28.8,27.3,28.7,14.4,41.5c0,0-0.1,0.1-0.1,0.1l0,0C1.5,54.4,1.4,75.1,14.1,88l0.2,0.2
	C27.1,101,47.9,101,60.7,88.3c0,0,0.1-0.1,0.1-0.1l0,0c6.2-6.2,9.7-14.5,9.6-23.3C70.4,56.2,66.9,47.8,60.8,41.6z M37.5,93.5
	C21.7,93.5,8.9,80.8,8.9,65s12.8-28.6,28.6-28.6S66,49.2,66,65l0,0C66,80.7,53.2,93.5,37.5,93.5z"/>
<path class="st3" d="M37.5,36C21.7,36,8.9,48.9,8.9,64.8s12.8,28.8,28.6,28.8S66,80.7,66,64.8l0,0C66,48.9,53.2,36.1,37.5,36z
	 M55.4,82.8c-9.9,10-26,10-35.9,0l-0.2-0.2c-9.7-10-9.6-26,0.2-36l0,0c9.9-10,26-10,35.9,0l0,0c4.7,4.8,7.4,11.3,7.4,18.1
	C62.9,71.5,60.2,78,55.4,82.8z"/>
<path class="st0" d="M126,82.9c9.9,0,17.9-8,17.9-17.9s-8-17.9-17.9-17.9s-17.9,8-17.9,17.9C108.2,74.9,116.2,82.8,126,82.9z"/>
<path class="st4" d="M88.9,47.7l8.6,7.6c0.5,0.4,1.3,0.4,1.8-0.1l1.7-2c0.4-0.5,0.4-1.3-0.1-1.8l-8.6-7.6c-0.5-0.4-1.3-0.4-1.8,0.1
	l-1.7,2C88.3,46.4,88.4,47.2,88.9,47.7z"/>
<path class="st5" d="M81,62.6c-0.6,0.7-0.6,1.8,0.2,2.5c0.7,0.6,1.8,0.6,2.5-0.2c0,0,0,0,0,0l11.5-13.1c0.6-0.7,0.6-1.8-0.2-2.5
	c-0.7-0.6-1.8-0.6-2.5,0.2c0,0,0,0,0,0L81,62.6z"/>
<path class="st6" d="M126,73.7c4.8,0,8.7-3.9,8.7-8.7c0-4.8-3.9-8.7-8.7-8.7c-4.8,0-8.7,3.9-8.7,8.7C117.4,69.8,121.3,73.6,126,73.7
	z"/>
<path class="st2" d="M149.3,41.6L149.3,41.6c-12.8-12.8-33.6-12.9-46.4-0.1c0,0-0.1,0.1-0.1,0.1l0,0C90,54.4,89.9,75.1,102.6,88
	l0.2,0.2c12.8,12.8,33.6,12.9,46.4,0.1c0,0,0.1-0.1,0.1-0.1l0,0c12.8-12.8,12.9-33.6,0.1-46.4C149.4,41.7,149.3,41.7,149.3,41.6z
	 M126,94.5c-16.4,0-29.6-13.3-29.6-29.6s13.3-29.6,29.6-29.6c16.4,0,29.6,13.3,29.6,29.6v0C155.6,81.2,142.4,94.5,126,94.5z"/>
<path class="st7" d="M48.4,68.8H36.1c-0.5,0-1-0.1-1.4-0.4c-1.3-0.7-1.8-2.4-1.1-3.7c0,0,0,0,0,0l9.8-17.1h4.8v2.8l-7.4,12.8h7.4
	L48.4,68.8z"/>
<path class="st3" d="M126,34.7c-16.4,0-29.6,13.4-29.6,30s13.3,30,29.6,30s29.6-13.4,29.6-30c0,0,0,0,0,0
	C155.6,48.1,142.4,34.7,126,34.7z M126,91.2c-14.5,0-26.3-11.9-26.3-26.6S111.4,38,125.9,38c14.5,0,26.3,11.9,26.3,26.6
	c0,0,0,0.1,0,0.1C152.2,79.3,140.5,91.1,126,91.2z"/>
<path class="st8" d="M44.7,56.8l36.5-0.6c0.6,0,1.1,0.5,1.2,1.2c0,0.6-0.5,1.1-1.1,1.2l-37.8,0.6C43.4,59.1,44.7,56.8,44.7,56.8z
	 M37.8,72.2c-0.6,0-1.1-0.5-1.1-1.2c0-0.6,0.5-1.1,1.2-1.1l0,0l42.7,1c0.6,0,1.1,0.5,1.1,1.1c0,0,0,0,0,0c0,0.6-0.4,1.1-1,1.1
	c0,0-0.1,0-0.1,0L37.8,72.2z"/>
<path class="st6" d="M37.5,73.7c4.8,0,8.7-3.9,8.7-8.7c0-4.8-3.9-8.7-8.7-8.7s-8.7,3.9-8.7,8.7C28.8,69.8,32.7,73.6,37.5,73.7z"/>
<path class="st7" d="M105.7,19.2L128,63.8c0.8,1.4,0.3,3.1-1.1,3.8c-1.4,0.8-3.1,0.3-3.8-1.1c0-0.1-0.1-0.2-0.1-0.2l-16.4-32.9
	c-0.6-1.2-2.4-1.3-3.1-0.1L83.9,67.2c-0.5,1-1.4,1.6-2.5,1.5H36.1c-0.5,0-1-0.1-1.4-0.4c-1.3-0.7-1.8-2.4-1.1-3.7c0,0,0,0,0,0
	l23-39.8c0.3-0.5,0.3-1.1,0-1.7l-5.5-10.8C50.5,11,51,9.2,52.3,8.5c1.4-0.8,3.1-0.3,3.8,1.1c0,0.1,0.1,0.2,0.1,0.2L62,21.1
	c0.3,0.6,0.9,1,1.6,1h37.3l-0.4-0.8c-0.4-0.7-0.3-1.5,0.1-2.2c0.4-0.7,1.1-1.1,1.9-1.1h1.3C104.6,18,105.3,18.4,105.7,19.2z
	 M66.5,30.2l13.6,27.1c0.6,1.2,2.4,1.3,3.1,0.1l15.6-27.1c0.7-1.2-0.2-2.6-1.5-2.6l-29.2,0C66.8,27.7,65.9,29,66.5,30.2z M75.6,60.6
	L61.7,32.8c-0.6-1.2-2.4-1.3-3.1-0.1L42.5,60.5c-0.7,1.2,0.2,2.6,1.5,2.6l29.9,0C75.3,63.2,76.1,61.8,75.6,60.6z"/>
<path class="st9" d="M44.2,12.7h23.9c0.8,0,1.5-0.7,1.5-1.5c0,0,0,0,0,0V9.3c0-0.6-0.5-1.1-1.2-1.2c-3-0.3-9.4-4-18.3-4
	c-8.6,0.3-9.5,3.4-7.3,7.6C43.1,12.4,43.6,12.7,44.2,12.7z"/>
<path class="st10" d="M81.8,74.2c5.1,0,9.3-4.1,9.3-9.3c0-5.1-4.1-9.3-9.3-9.3c-5.1,0-9.3,4.1-9.3,9.3l0,0
	C72.7,70,76.8,74.1,81.8,74.2z"/>
<path class="st11" d="M81.8,69.2c2.3,0,4.2-1.9,4.2-4.2c0-2.3-1.9-4.2-4.2-4.2c-2.3,0-4.2,1.9-4.2,4.2
	C77.6,67.3,79.5,69.2,81.8,69.2z"/>
<path class="st12" d="M80.1,63.6c0.6-0.7,1.7-0.8,2.5-0.2c0.7,0.6,0.8,1.7,0.2,2.5c0,0,0,0,0,0L69.7,80.7c-0.6,0.7-1.7,0.8-2.5,0.2
	c-0.7-0.6-0.8-1.7-0.2-2.5c0,0,0,0,0,0L80.1,63.6z"/>
<path class="st4" d="M66.3,73.2l8.6,7.6c0.5,0.5,0.6,1.2,0.1,1.8l-1.7,2c-0.5,0.5-1.2,0.6-1.8,0.1l-8.6-7.6
	c-0.5-0.5-0.6-1.2-0.1-1.8l1.7-2C65,72.8,65.8,72.8,66.3,73.2z"/>
<path class="st13" d="M98.3,10.1l8.9-6.3c1.3-0.9,3.9-2.1,4.6-0.5l2.2,9.5"/>
</svg>
