<?xml version="1.0" encoding="utf-8"?>
<!-- Generator: Adobe Illustrator 21.0.2, SVG Export Plug-In . SVG Version: 6.00 Build 0)  -->
<svg version="1.1" id="master-artboard" xmlns="http://www.w3.org/2000/svg" xmlns:xlink="http://www.w3.org/1999/xlink" x="0px"
	 y="0px" viewBox="0 0 97.6 69.1" style="enable-background:new 0 0 97.6 69.1;" xml:space="preserve">
<style type="text/css">
	.st0{fill:#E8DB67;}
	.st1{fill:#C1A52F;}
	.st2{fill:#3A3A3A;}
	.st3{fill:#EDEDEF;}
	.st4{fill:#686868;}
	.st5{opacity:0.76;fill:#898989;}
	.st6{fill:#2E2E2E;}
	.st7{fill:#EFC44B;}
	.st8{fill:#BA302A;}
	.st9{fill:none;stroke:#2E2E2E;stroke-width:0.2186;stroke-miterlimit:10;}
</style>
<title>camera_icon</title>
<path class="st0" d="M6.4,6.4h84.9c2.9,0,5.3,2.3,5.3,5.1c0,0,0,0,0,0v51.9c0,2.8-2.3,5.1-5.2,5.1c0,0,0,0,0,0H6.4
	c-2.9,0-5.3-2.3-5.3-5.1c0,0,0,0,0,0V11.5C1.2,8.7,3.5,6.4,6.4,6.4z"/>
<path class="st1" d="M81.9,6.4h9.5c2.9,0,5.3,2.3,5.3,5.1c0,0,0,0,0,0v51.9c0,2.8-2.3,5.1-5.2,5.1c0,0,0,0,0,0h-9.5
	C81.9,68.5,97.9,34.5,81.9,6.4z"/>
<path class="st2" d="M74.2,38.6c0,13.8-11.6,25-25.8,25c-14.3,0-25.8-11.2-25.8-25s11.6-25,25.8-25S74.2,24.8,74.2,38.6
	C74.2,38.6,74.2,38.6,74.2,38.6z"/>
<path class="st3" d="M68.7,38.6c0,10.9-9.1,19.7-20.4,19.7C37.1,58.3,28,49.5,28,38.6s9.1-19.7,20.4-19.7l0,0
	C59.6,18.9,68.7,27.7,68.7,38.6z"/>
<path class="st4" d="M65.4,38.6c0,9.1-7.6,16.5-17.1,16.5s-17.1-7.4-17.1-16.5S38.9,22,48.3,22l0,0C57.8,22,65.4,29.5,65.4,38.6z"/>
<circle class="st3" cx="48.3" cy="39" r="3.6"/>
<path class="st5" d="M60.4,26.9c6.6,6.5,6.9,16.6,0.2,23.3s-17.5,6.4-23.9,0.5"/>
<path class="st6" d="M10.6,6.4C10.6,6.4,10.6,6.4,10.6,6.4l0-5c0-0.6,0.5-1.1,1.1-1.1c0,0,0.1,0,0.1,0h12.6c0.7,0,1.2,0.5,1.2,1.1
	c0,0,0,0,0,0l0,5L10.6,6.4z"/>
<path class="st6" d="M69.9,6.4C69.9,6.4,69.9,6.4,69.9,6.4v-2c0-0.7,0.7-0.6,1.6-0.6c0,0,0,0,0,0h17.5c0.9,0,1.7,0,1.7,0.5
	c0,0,0,0,0,0v1.9"/>
<path class="st7" d="M11.5,1h13.1v4.8H11.5V1z"/>
<path class="st8" d="M18.5,17.3c0,1.6-1.3,2.8-2.9,2.8s-2.9-1.3-2.9-2.8s1.3-2.8,2.9-2.8S18.5,15.7,18.5,17.3z"/>
<polyline class="st9" points="11.5,1 14.8,2.5 14.8,4.3 11.5,5.8 "/>
<polyline class="st9" points="24.6,5.8 21.4,4.3 21.4,2.5 24.6,1 "/>
<line class="st9" x1="14.8" y1="2.5" x2="21.4" y2="2.5"/>
<line class="st9" x1="14.8" y1="4.3" x2="21.4" y2="4.3"/>
</svg>
