<?xml version="1.0" encoding="utf-8"?>
<!-- Generator: Adobe Illustrator 21.0.2, SVG Export Plug-In . SVG Version: 6.00 Build 0)  -->
<svg version="1.1" id="master-artboard" xmlns="http://www.w3.org/2000/svg" xmlns:xlink="http://www.w3.org/1999/xlink" x="0px"
	 y="0px" viewBox="0 0 170.8 103.3" style="enable-background:new 0 0 170.8 103.3;" xml:space="preserve">
<style type="text/css">
	.st0{fill:#D3D3D3;}
	.st1{fill:#777777;}
	.st2{fill:none;stroke:#000000;stroke-width:1.935;stroke-miterlimit:10;}
	.st3{fill:#AFAFAF;}
</style>
<title>craft_icon</title>
<g id="XMLID_1_">
	<g>
		<path class="st0" d="M36.1,73.2c4,0.4,6.9,3.9,6.5,7.9c-0.4,4-3.9,6.9-7.9,6.5c-4-0.4-6.9-3.9-6.5-7.9
			C28.6,75.8,32.2,72.8,36.1,73.2z"/>
		<path class="st1" d="M132.8,36.9c13.5-9.4,11.6-2.2,11.6-2.2s-12.6,24.7-24.1,20.7c-10-3.5-28.2,7.8-28.2,7.8L43.8,93.7
			c-6.3,4.2-17.3,2.7-22.5-3.6c-4.4-6.9-3-17.7,4-22.1l50.5-27.5c0,0,18.9-10.6,18.6-20.2C94,8.1,121.6,3.8,121.6,3.8
			s7.4,0.4-5.7,10.4l-13.1,9.9l2.2,15.4l14.3,6.8L132.8,36.9z M42.6,81.1c0.4-4-2.5-7.5-6.5-7.9c-4-0.4-7.5,2.5-7.9,6.5
			c-0.4,4,2.5,7.5,6.5,7.9C38.7,88,42.2,85.1,42.6,81.1z"/>
	</g>
	<g>
		<path class="st2" d="M105,39.5l-2.2-15.4l13.1-9.9c13.1-9.9,5.7-10.4,5.7-10.4S94,8.1,94.4,20.3c0.3,9.6-18.6,20.2-18.6,20.2
			L25.3,68c-6.9,4.4-8.4,15.1-4,22.1c5.2,6.3,16.2,7.9,22.5,3.6l48.3-30.5c0,0,18.2-11.2,28.2-7.8c11.5,4,24.1-20.7,24.1-20.7
			s1.9-7.2-11.6,2.2l-13.5,9.4L105,39.5z"/>
		<path class="st2" d="M42.6,81.1c-0.4,4-3.9,6.9-7.9,6.5c-4-0.4-6.9-3.9-6.5-7.9c0.4-4,3.9-6.9,7.9-6.5
			C40.1,73.6,43,77.1,42.6,81.1z"/>
	</g>
</g>
<path class="st3" d="M120.4,51.7c0,0,3,1,5,0s9.8-9,9.8-9s0.4,1.4-0.9,3.5c-1.3,2.2-7.8,6.7-8.9,6.9
	C124.4,53.3,121.8,52.8,120.4,51.7z"/>
</svg>
