<?xml version="1.0" encoding="utf-8"?>
<!-- Generator: Adobe Illustrator 21.0.2, SVG Export Plug-In . SVG Version: 6.00 Build 0)  -->
<svg version="1.1" id="Layer_1" xmlns="http://www.w3.org/2000/svg" xmlns:xlink="http://www.w3.org/1999/xlink" x="0px" y="0px"
	 viewBox="0 0 167 180.4" style="enable-background:new 0 0 167 180.4;" xml:space="preserve">
<style type="text/css">
	.st0{opacity:0.95;fill:url(#SVGID_1_);enable-background:new    ;}
	.st1{fill:url(#SVGID_2_);}
	.st2{opacity:0.1;}
	.st3{fill:url(#SVGID_3_);}
	.st4{fill:url(#SVGID_4_);}
</style>
<title>Asset 5</title>
<g id="Layer_2">
	<g id="Layer_1-2">
		
			<linearGradient id="SVGID_1_" gradientUnits="userSpaceOnUse" x1="11.7775" y1="172.7075" x2="155.7325" y2="28.7525" gradientTransform="matrix(1 0 0 -1 0 182)">
			<stop  offset="0" style="stop-color:#375428"/>
			<stop  offset="1" style="stop-color:#2D342C"/>
		</linearGradient>
		<rect x="10.7" y="10.4" class="st0" width="146.1" height="141.8"/>
		
			<image style="overflow:visible;opacity:0.4;enable-background:new    ;" width="168" height="165" xlink:href="ADDFC5D3343C6C63.png"  transform="matrix(0.994 0 0 0.9939 0 0)">
		</image>
		
			<linearGradient id="SVGID_2_" gradientUnits="userSpaceOnUse" x1="4.41" y1="178.59" x2="162.78" y2="23.86" gradientTransform="matrix(1 0 0 -1 0 182)">
			<stop  offset="0" style="stop-color:#8EF208"/>
			<stop  offset="1" style="stop-color:#83E605"/>
		</linearGradient>
		<path class="st1" d="M4.4,3.4v154.7h158.4V3.4H4.4z M150.2,145.9H17.3V16h132.9V145.9z"/>
		<g class="st2">
			<path d="M28,48.7c5.7-1,11.5-1.4,17.3-1.4c11.1,0,18.7,2.5,24.2,7.6c5.7,5.1,9.2,12.9,9.2,24.1c0,11.7-3.6,20.4-9.2,26
				c-5.9,5.9-15.3,8.9-26.8,8.9c-4.9,0-9.8-0.2-14.6-0.9L28,48.7z M38.8,104.1c2,0.3,4,0.4,6,0.3c14.1,0.1,22.4-8.4,22.4-25.1
				c0.1-14.5-7.5-22.7-21-22.7c-2.5-0.1-5,0.2-7.4,0.7L38.8,104.1z"/>
		</g>
		
			<linearGradient id="SVGID_3_" gradientUnits="userSpaceOnUse" x1="28.15" y1="102.7105" x2="139.92" y2="102.7105" gradientTransform="matrix(1 0 0 -1 0 182)">
			<stop  offset="0" style="stop-color:#8EF208"/>
			<stop  offset="1" style="stop-color:#83E605"/>
		</linearGradient>
		<path class="st3" d="M28,47.3c5.7-1,11.5-1.4,17.3-1.3c11.1,0,18.7,2.5,24.2,7.5c5.7,5.2,9.2,12.9,9.2,24.1
			c0,11.7-3.6,20.4-9.2,26c-5.9,5.9-15.3,8.9-26.8,8.9c-4.9,0-9.8-0.2-14.6-0.9L28,47.3z M38.9,102.8c2,0.3,4,0.4,6,0.3
			c14.1,0.1,22.4-8.4,22.4-25.1c0.1-14.5-7.5-22.7-21-22.7c-2.5-0.1-5,0.2-7.4,0.7L38.9,102.8z"/>
		<g class="st2">
			<path d="M90.6,65.9L95,87.4c0.9,5,1.9,10.2,2.6,15.3h0.2c0.8-5.2,2.2-10.4,3.4-15.2l5.4-21.6h8.5l5.2,21
				c1.3,5.5,2.4,10.7,3.3,15.8h0.2c0.7-5.2,1.6-10.3,2.7-15.8l4.6-21h10.3l-13,47.3h-9.7l-5-19.3c-1.3-5-2.2-9.4-3.2-15.2h-0.2
				c-0.8,5.1-1.8,10.2-3.2,15.2l-5.2,19.2h-9.8L79.9,65.9H90.6z"/>
		</g>
		
			<linearGradient id="SVGID_4_" gradientUnits="userSpaceOnUse" x1="28.15" y1="93.725" x2="139.92" y2="93.725" gradientTransform="matrix(1 0 0 -1 0 182)">
			<stop  offset="0" style="stop-color:#8EF208"/>
			<stop  offset="1" style="stop-color:#83E605"/>
		</linearGradient>
		<path class="st4" d="M90.6,64.6L95,86.1c0.9,5,1.9,10.2,2.6,15.3h0.2c0.8-5.2,2.2-10.4,3.4-15.2l5.4-21.6h8.5l5.2,21
			c1.3,5.5,2.4,10.7,3.3,15.8h0.2c0.7-5.2,1.6-10.3,2.7-15.8l4.6-21h10.3l-13,47.3h-9.7l-4.9-19.2c-1.3-5-2.2-9.4-3.2-15.2h-0.2
			c-0.8,5.1-1.8,10.2-3.2,15.2l-5.3,19.2h-9.8L79.9,64.6H90.6z"/>
	</g>
</g>
</svg>
