<?xml version="1.0" encoding="utf-8"?>
<!-- Generator: Adobe Illustrator 21.0.2, SVG Export Plug-In . SVG Version: 6.00 Build 0)  -->
<svg version="1.1" id="master-artboard" xmlns="http://www.w3.org/2000/svg" xmlns:xlink="http://www.w3.org/1999/xlink" x="0px"
	 y="0px" viewBox="0 0 174.6 112.9" style="enable-background:new 0 0 174.6 112.9;" xml:space="preserve">
<style type="text/css">
	.st0{fill:none;}
	.st1{fill:#232323;}
	.st2{fill:#BCBCBC;}
	.st3{fill:#E2E2E2;}
</style>
<title>fencing_icon</title>
<g>
	<path d="M39.2,79.4L135,10.7L41.6,82.6c-0.9,0.7-2.1,0.5-2.8-0.4S38.3,80.1,39.2,79.4C39.2,79.4,39.2,79.4,39.2,79.4z"/>
</g>
<line class="st0" x1="161.6" y1="9.2" x2="161.6" y2="9.3"/>
<path class="st1" d="M34.4,86.2c-1.6,2.5-3.5,4.8-5.7,6.9c-2.1,2-4.3,4-6.6,5.7c-2.3,1.8-4.7,3.4-7.2,4.9c-2.6,1.5-5.3,2.8-8.1,3.8
	c1.6-2.5,3.6-4.8,5.7-6.9c2.1-2,4.2-3.9,6.5-5.7c2.3-1.8,4.7-3.4,7.2-4.9C28.9,88.4,31.6,87.1,34.4,86.2z"/>
<path d="M5.7,102.3C3.8,97.3,3,92,3.3,86.7C3.5,83.9,4,81.2,5,78.6c1-2.8,2.8-5.3,5.1-7.2c2.4-1.9,5.2-3.1,8.2-3.4
	c2.8-0.2,5.6,0,8.4,0.7c5.1,1.4,10,3.8,14.2,7c-5.1-1.3-10-2.6-14.9-3.1c-2.3-0.2-4.7-0.2-7,0.2c-2.1,0.4-4.1,1.2-5.8,2.6
	c-3.3,2.6-5,7.2-6,11.9C6.3,92.2,5.8,97.3,5.7,102.3z"/>
<path class="st2" d="M13.3,75.3c0,0,18.5-4.9,27.2,5.7s1,25,1,25S32.5,90.6,13.3,75.3z"/>
<path class="st3" d="M40,85.1c0,0,3.3,9.5,0.4,13.7c-2.9,4.2,3-0.5,3-1.4C43.4,96.5,43.7,87.9,40,85.1z"/>
<g>
	<path d="M116.3,80.8L22.9,8.9l95.8,68.7c0.9,0.6,1.1,1.9,0.5,2.8C118.5,81.3,117.3,81.5,116.3,80.8
		C116.3,80.8,116.3,80.8,116.3,80.8z"/>
</g>
<line class="st0" x1="-3.7" y1="7.3" x2="-3.7" y2="7.5"/>
<path class="st1" d="M123.5,84.3c1.6,2.5,3.5,4.8,5.7,6.9c2.1,2,4.3,4,6.6,5.7c2.3,1.8,4.7,3.4,7.2,4.9c2.6,1.5,5.3,2.8,8.1,3.8
	c-1.6-2.5-3.6-4.8-5.7-6.9c-2.1-2-4.2-3.9-6.5-5.7c-2.3-1.8-4.7-3.4-7.2-4.9C129.1,86.6,126.4,85.3,123.5,84.3z"/>
<path d="M152.3,100.5c1.9-5,2.6-10.3,2.3-15.6c-0.1-2.8-0.7-5.5-1.7-8.1c-1-2.8-2.8-5.3-5.1-7.2c-2.4-1.9-5.2-3.1-8.2-3.4
	c-2.8-0.2-5.6,0-8.4,0.7c-5.1,1.4-10,3.8-14.2,7c5.1-1.3,10-2.6,14.9-3.1c2.3-0.2,4.7-0.2,7,0.2c2.1,0.4,4.1,1.2,5.8,2.6
	c3.3,2.6,5,7.2,6,11.9C151.6,90.4,152.2,95.4,152.3,100.5z"/>
<path class="st2" d="M144.7,73.5c0,0-18.5-4.9-27.2,5.7s-1.1,25-1.1,25S125.4,88.8,144.7,73.5z"/>
<path class="st3" d="M117.9,83.3c0,0-3.3,9.5-0.4,13.7c2.9,4.2-3-0.5-3-1.4C114.6,94.6,114.2,86.1,117.9,83.3z"/>
</svg>
