<?xml version="1.0" encoding="utf-8"?>
<!-- Generator: Adobe Illustrator 21.0.2, SVG Export Plug-In . SVG Version: 6.00 Build 0)  -->
<svg version="1.1" id="Layer_1" xmlns="http://www.w3.org/2000/svg" xmlns:xlink="http://www.w3.org/1999/xlink" x="0px" y="0px"
	 viewBox="0 0 167 180.4" style="enable-background:new 0 0 167 180.4;" xml:space="preserve">
<style type="text/css">
	.st0{opacity:0.95;fill:url(#SVGID_1_);enable-background:new    ;}
	.st1{fill:url(#SVGID_2_);}
	.st2{opacity:0.1;}
	.st3{fill:url(#SVGID_3_);}
	.st4{fill:url(#SVGID_4_);}
</style>
<title>Asset 3</title>
<g>
	<g id="Layer_2">
		<g id="Layer_1-2">
			
				<linearGradient id="SVGID_1_" gradientUnits="userSpaceOnUse" x1="11.505" y1="172.755" x2="155.465" y2="28.805" gradientTransform="matrix(1 0 0 -1 0 182)">
				<stop  offset="0" style="stop-color:#5E4421"/>
				<stop  offset="1" style="stop-color:#373100"/>
			</linearGradient>
			<rect x="10.4" y="10.3" class="st0" width="146.1" height="141.8"/>
			
				<linearGradient id="SVGID_2_" gradientUnits="userSpaceOnUse" x1="4.14" y1="178.64" x2="162.51" y2="23.91" gradientTransform="matrix(1 0 0 -1 0 182)">
				<stop  offset="0" style="stop-color:#FDC45E"/>
				<stop  offset="1" style="stop-color:#FC9C0D"/>
			</linearGradient>
			<path class="st1" d="M4.1,3.4v154.7h158.4V3.4H4.1z M149.9,145.8H17.1V16h132.9V145.8z"/>
			<g class="st2">
				<path d="M61.8,95.2l-5.6,18.5H43.9l21-65.5h15.2l21.3,65.5H88.6l-5.9-18.5H61.8z M80.6,86.2L75.4,70c-1.3-4-2.3-8.5-3.3-12.2
					h-0.2C71,61.6,70,66.1,68.8,70l-5.1,16.2L80.6,86.2z"/>
			</g>
			
				<linearGradient id="SVGID_3_" gradientUnits="userSpaceOnUse" x1="42.74" y1="102.32" x2="117.78" y2="102.32" gradientTransform="matrix(1 0 0 -1 0 182)">
				<stop  offset="0" style="stop-color:#FDC45E"/>
				<stop  offset="1" style="stop-color:#FC9C0D"/>
			</linearGradient>
			<path class="st3" d="M61.8,93.9l-5.6,18.6H43.9l21-65.5h15.2l21.3,65.5H88.6l-5.9-18.6H61.8z M80.6,84.9l-5.1-16.2
				c-1.3-4-2.3-8.5-3.3-12.2h-0.2c-0.9,3.8-1.9,8.3-3.1,12.2l-5.1,16.1L80.6,84.9z"/>
			<g class="st2">
				<path d="M118.8,53.2c0,3.6-2.6,6.4-6.8,6.4c-3.5,0.2-6.4-2.5-6.6-6c0-0.2,0-0.3,0-0.5c0-3.7,3-6.7,6.7-6.7
					C115.8,46.5,118.8,49.5,118.8,53.2z M106,113.7V66.4h12v47.3L106,113.7z"/>
			</g>
			
				<linearGradient id="SVGID_4_" gradientUnits="userSpaceOnUse" x1="42.73" y1="103.195" x2="117.78" y2="103.195" gradientTransform="matrix(1 0 0 -1 0 182)">
				<stop  offset="0" style="stop-color:#FDC45E"/>
				<stop  offset="1" style="stop-color:#FC9C0D"/>
			</linearGradient>
			<path class="st4" d="M118.8,51.9c0,3.6-2.6,6.4-6.8,6.4c-3.5,0.2-6.4-2.5-6.6-6c0-0.2,0-0.3,0-0.5c0-3.7,3-6.7,6.7-6.7
				C115.8,45.2,118.8,48.2,118.8,51.9z M106,112.4V65.1h12v47.3H106z"/>
		</g>
	</g>
</g>
</svg>
