<?xml version="1.0" encoding="utf-8"?>
<!-- Generator: Adobe Illustrator 21.0.2, SVG Export Plug-In . SVG Version: 6.00 Build 0)  -->
<svg version="1.1" id="master-artboard" xmlns="http://www.w3.org/2000/svg" xmlns:xlink="http://www.w3.org/1999/xlink" x="0px"
	 y="0px" viewBox="0 0 69.9 109.3" style="enable-background:new 0 0 69.9 109.3;" xml:space="preserve">
<style type="text/css">
	.st0{fill:#8CBFC4;}
	.st1{fill:#3A3A3A;}
	.st2{fill:#424242;}
	.st3{fill:none;stroke:#000000;stroke-miterlimit:10;}
	.st4{fill:none;stroke:#000000;stroke-linecap:round;stroke-linejoin:round;stroke-miterlimit:10;}
	.st5{fill:#79A3A2;}
</style>
<title>skiing_icon</title>
<g id="XMLID_1_">
	<g>
		<path class="st0" d="M19.2,70.9V99c0,3.7-3,4.6-6.6,4.6s-6.7-1-6.7-4.6V74h2.6c0,1.3,0,2.3,0,2.4c0.1,0.4,1.6,1.9,1.6,1.9
			s4,0.1,4.8,0c0.8-0.1,1.9-1.9,1.9-1.9s0-3.1,0-5.5H19.2z"/>
		<path class="st0" d="M19.2,19.9v51h-2.3c0-1.2,0-2.3,0-2.8c-0.1-1.5-1.9-2.6-1.9-2.6h-4.8c-0.9,0-1.6,2.3-1.6,2.3s0,3.7,0,6.2H5.9
			V19.9c0-6.2,3-11.2,6.7-11.2S19.2,13.7,19.2,19.9z M15.8,47v-8.3c0-0.1,0-0.3-0.1-0.4c-0.3-0.9-1.6-4.4-3.1-4.6
			c-1.5-0.2-3.1,3.7-3.5,4.7c-0.1,0.2-0.1,0.3-0.1,0.5V47c0,0.9,0.8,1.5,1.7,1.3c0.9-0.2,2.1-0.3,3.4,0C15,48.5,15.8,47.9,15.8,47z"
			/>
		<path class="st1" d="M16.8,68.1c0,0.5,0,1.6,0,2.8c0,2.5,0,5.5,0,5.5s-1.1,1.8-1.9,1.9c-0.8,0.1-4.8,0-4.8,0s-1.5-1.5-1.6-1.9
			c0-0.1,0-1.1,0-2.4c0-2.6,0-6.2,0-6.2s0.7-2.3,1.6-2.3h4.8C14.9,65.5,16.7,66.6,16.8,68.1z"/>
		<path class="st2" d="M15.8,38.7V47c0,0.9-0.8,1.5-1.7,1.3c-1.3-0.3-2.5-0.2-3.4,0c-0.9,0.2-1.7-0.4-1.7-1.3v-8.2
			c0-0.2,0-0.3,0.1-0.5c0.4-1,2-4.9,3.5-4.7c1.5,0.2,2.8,3.7,3.1,4.6C15.8,38.4,15.8,38.6,15.8,38.7z"/>
	</g>
	<g>
		<path class="st3" d="M5.9,74V19.9c0-6.2,3-11.2,6.7-11.2s6.6,5,6.6,11.2v51V99c0,3.7-3,4.6-6.6,4.6s-6.7-1-6.7-4.6V74z"/>
		<path class="st3" d="M8.5,74c0-2.6,0-6.2,0-6.2s0.7-2.3,1.6-2.3h4.8c0,0,1.8,1.1,1.9,2.6c0,0.5,0,1.6,0,2.8c0,2.5,0,5.5,0,5.5
			s-1.1,1.8-1.9,1.9c-0.8,0.1-4.8,0-4.8,0s-1.5-1.5-1.6-1.9C8.5,76.3,8.5,75.3,8.5,74z"/>
		<path class="st4" d="M10.8,48.3c0.9-0.2,2.1-0.3,3.4,0c0.9,0.2,1.7-0.4,1.7-1.3v-8.3c0-0.1,0-0.3-0.1-0.4
			c-0.3-0.9-1.6-4.4-3.1-4.6c-1.5-0.2-3.1,3.7-3.5,4.7c-0.1,0.2-0.1,0.3-0.1,0.5V47C9.1,47.9,9.9,48.5,10.8,48.3z"/>
	</g>
</g>
<path class="st5" d="M16.4,11.7l-1.1,2L6.4,32.6c0,0-0.2-10,0-13.4c0.2-3,1.2-10.3,6.4-10C15.2,9.4,16.4,11.7,16.4,11.7z"/>
<g id="XMLID_2_">
	<g>
		<path class="st0" d="M61.6,70.9V99c0,3.7-3,4.6-6.6,4.6c-3.7,0-6.7-1-6.7-4.6V74h2.6c0,1.3,0,2.3,0,2.4c0.1,0.4,1.6,1.9,1.6,1.9
			s4,0.1,4.8,0c0.8-0.1,1.9-1.9,1.9-1.9s0-3.1,0-5.5H61.6z"/>
		<path class="st0" d="M61.6,19.9v51h-2.3c0-1.2,0-2.3,0-2.8c-0.1-1.5-1.9-2.6-1.9-2.6h-4.8c-0.9,0-1.6,2.3-1.6,2.3s0,3.7,0,6.2
			h-2.6V19.9c0-6.2,3-11.2,6.7-11.2C58.6,8.7,61.6,13.7,61.6,19.9z M58.2,47v-8.3c0-0.1,0-0.3-0.1-0.4c-0.3-0.9-1.6-4.4-3.1-4.6
			c-1.5-0.2-3.1,3.7-3.5,4.7c-0.1,0.2-0.1,0.3-0.1,0.5V47c0,0.9,0.8,1.5,1.7,1.3c0.9-0.2,2.1-0.3,3.4,0C57.4,48.5,58.2,47.9,58.2,47
			z"/>
		<path class="st1" d="M59.2,68.1c0,0.5,0,1.6,0,2.8c0,2.5,0,5.5,0,5.5s-1.1,1.8-1.9,1.9c-0.8,0.1-4.8,0-4.8,0s-1.5-1.5-1.6-1.9
			c0-0.1,0-1.1,0-2.4c0-2.6,0-6.2,0-6.2s0.7-2.3,1.6-2.3h4.8C57.3,65.5,59.1,66.6,59.2,68.1z"/>
		<path class="st2" d="M58.2,38.7V47c0,0.9-0.8,1.5-1.7,1.3c-1.3-0.3-2.5-0.2-3.4,0c-0.9,0.2-1.7-0.4-1.7-1.3v-8.2
			c0-0.2,0-0.3,0.1-0.5c0.4-1,2-4.9,3.5-4.7c1.5,0.2,2.8,3.7,3.1,4.6C58.2,38.4,58.2,38.6,58.2,38.7z"/>
	</g>
	<g>
		<path class="st3" d="M48.3,74V19.9c0-6.2,3-11.2,6.7-11.2c3.7,0,6.6,5,6.6,11.2v51V99c0,3.7-3,4.6-6.6,4.6c-3.7,0-6.7-1-6.7-4.6
			V74z"/>
		<path class="st3" d="M50.9,74c0-2.6,0-6.2,0-6.2s0.7-2.3,1.6-2.3h4.8c0,0,1.8,1.1,1.9,2.6c0,0.5,0,1.6,0,2.8c0,2.5,0,5.5,0,5.5
			s-1.1,1.8-1.9,1.9c-0.8,0.1-4.8,0-4.8,0s-1.5-1.5-1.6-1.9C50.9,76.3,50.9,75.3,50.9,74z"/>
		<path class="st4" d="M53.2,48.3c0.9-0.2,2.1-0.3,3.4,0c0.9,0.2,1.7-0.4,1.7-1.3v-8.3c0-0.1,0-0.3-0.1-0.4
			c-0.3-0.9-1.6-4.4-3.1-4.6c-1.5-0.2-3.1,3.7-3.5,4.7c-0.1,0.2-0.1,0.3-0.1,0.5V47C51.5,47.9,52.3,48.5,53.2,48.3z"/>
	</g>
</g>
<path class="st5" d="M58.8,11.7l-1.1,2l-8.9,18.9c0,0-0.2-10,0-13.4c0.2-3,1.2-10.3,6.4-10C57.6,9.4,58.8,11.7,58.8,11.7z"/>
</svg>
